<svg width="20" height="16" viewBox="0 0 20 16" fill="none" xmlns="http://www.w3.org/2000/svg">
<path d="M5.289 0.907491C8.42364 0.635003 11.576 0.635003 14.7106 0.907491L16.2209 1.03877C17.2263 1.12617 18.0873 1.72584 18.5335 2.58361C18.5905 2.69335 18.5478 2.82621 18.4426 2.89132L12.1766 6.77024C10.8328 7.60216 9.13825 7.61962 7.77753 6.81556L1.46971 3.0882C1.3678 3.02798 1.32102 2.90402 1.36695 2.79492C1.7751 1.82536 2.69273 1.13318 3.77877 1.03877L5.289 0.907491Z" fill="black"/>
<path d="M1.36181 4.76676C1.20585 4.6746 1.00685 4.77377 0.988668 4.95402C0.734932 7.46965 0.796343 10.0091 1.1729 12.5132C1.37141 13.8333 2.44882 14.8454 3.77877 14.961L5.289 15.0923C8.42364 15.3647 11.576 15.3647 14.7107 15.0923L16.2209 14.961C17.5508 14.8454 18.6282 13.8333 18.8268 12.5132C19.2143 9.93613 19.268 7.32162 18.988 4.73415C18.9684 4.55264 18.766 4.45529 18.6107 4.55139L12.9662 8.04564C11.148 9.17118 8.85541 9.19479 7.01444 8.10695L1.36181 4.76676Z" fill="black"/>
</svg>
