<svg width="17" height="17" viewBox="0 0 17 17" fill="none" xmlns="http://www.w3.org/2000/svg">
<path d="M1.00004 6.86029C2.91644 11.0342 6.32645 14.3527 10.566 16.1517L11.2456 16.4545C12.8004 17.1472 14.6282 16.6209 15.5765 15.2074L16.4646 13.8837C16.7533 13.4533 16.6654 12.8737 16.262 12.5483L13.2502 10.1185C12.8078 9.76159 12.1573 9.84472 11.8189 10.3014L10.8871 11.5586C8.49634 10.3793 6.55529 8.43825 5.37595 6.04744L6.6332 5.11572C7.08986 4.77729 7.17298 4.12678 6.81609 3.6844L4.38623 0.672454C4.06088 0.269172 3.48138 0.181205 3.05101 0.469774L1.71817 1.36347C0.295825 2.31718 -0.227556 4.16003 0.481176 5.71898L0.999264 6.85859L1.00004 6.86029Z" fill="black"/>
</svg>
